<svg width="37" height="43" viewBox="0 0 37 43" fill="none" xmlns="http://www.w3.org/2000/svg">
<rect x="0.960938" y="3.52441" width="30.051" height="39.1277" rx="1.21957" fill="#E9F0F5"/>
<path d="M13.4395 9.78076H29.2478" stroke="#677B8B" stroke-width="1.21957" stroke-linecap="round"/>
<path d="M13.4395 16.2637H22.9687" stroke="#677B8B" stroke-width="1.21957" stroke-linecap="round"/>
<path d="M7.27523 27.7058V37.0742C7.27523 38.198 8.60673 38.7903 9.44138 38.0378L11.4882 36.1925C12.0411 35.694 12.8812 35.694 13.4341 36.1925L15.2477 37.8275C16.2646 38.7444 17.81 38.7444 18.8269 37.8275L20.6404 36.1925C21.1933 35.694 22.0335 35.694 22.5864 36.1925L24.4 37.8275C25.4169 38.7444 26.9623 38.7444 27.9792 37.8275L29.7927 36.1925C30.3456 35.694 31.1858 35.694 31.7387 36.1925L33.7855 38.0378C34.6201 38.7903 35.9517 38.198 35.9517 37.0742V20.91V19.0171V1.99475C35.9517 1.27821 35.3708 0.697346 34.6542 0.697346H8.57263C7.8561 0.697346 7.27523 1.27821 7.27523 1.99475V12.2213V27.7058Z" stroke="#677B8B" stroke-width="1.21957"/>
</svg>
