<svg width="59" height="71" viewBox="0 0 59 71" fill="none" xmlns="http://www.w3.org/2000/svg">
<rect x="0.59729" y="6.47864" width="49.2815" height="64.1667" rx="2" fill="url(#paint0_linear)"/>
<path d="M21.0611 16.7381H46.9857" stroke="#193750" stroke-width="2" stroke-linecap="round"/>
<path d="M21.0611 27.3704H36.6884" stroke="#193750" stroke-width="2" stroke-linecap="round"/>
<path d="M10.9523 46.1343V61.4979C10.9523 63.3408 13.1359 64.3122 14.5047 63.0781L17.8612 60.0519C18.768 59.2345 20.1458 59.2345 21.0525 60.0519L24.0266 62.7333C25.6943 64.2368 28.2286 64.2368 29.8963 62.7333L32.8703 60.0519C33.777 59.2345 35.1549 59.2345 36.0616 60.0519L39.0357 62.7333C40.7034 64.2368 43.2377 64.2368 44.9054 62.7333L47.8794 60.0519C48.7861 59.2345 50.164 59.2345 51.0707 60.0519L54.4273 63.0781C55.796 64.3122 57.9796 63.3408 57.9796 61.4979V34.9897V31.8855V3.97005C57.9796 2.79499 57.027 1.84241 55.852 1.84241H13.08C11.9049 1.84241 10.9523 2.79499 10.9523 3.97005V20.7409V46.1343Z" stroke="#193750" stroke-width="2"/>
<defs>
<linearGradient id="paint0_linear" x1="13.5184" y1="38.3573" x2="48.0913" y2="41.783" gradientUnits="userSpaceOnUse">
<stop stop-color="#CAFCFC"/>
<stop offset="1" stop-color="#D9DDFF"/>
</linearGradient>
</defs>
</svg>
