<svg width="104" height="97" viewBox="0 0 104 97" fill="none" xmlns="http://www.w3.org/2000/svg">
<path d="M39.202 17.7728C21.5325 22.5073 9.79709 38.3339 9.48001 55.7536C9.46815 56.4052 10.0885 56.8751 10.718 56.7064L83.3367 37.2483C83.9662 37.0796 84.2685 36.3625 83.9325 35.8042C74.948 20.8767 56.8716 13.0382 39.202 17.7728Z" fill="url(#paint0_linear)"/>
<path d="M91.5549 34.0109L18.9789 53.4576C19.304 36.4863 30.7443 21.0743 47.9592 16.4616C65.1741 11.8488 82.7877 19.4759 91.5549 34.0109Z" stroke="#193750" stroke-width="2"/>
<path d="M48.0979 16.581C45.8607 18.4339 43.7892 20.5571 41.9314 22.9447C35.798 30.8273 33.0297 40.2605 33.4109 49.515" stroke="#193750" stroke-width="2"/>
<path d="M47.4396 16.7574C50.3035 17.2435 53.1591 18.0465 55.9617 19.1853C65.2147 22.9451 72.3287 29.7304 76.6258 37.9356" stroke="#193750" stroke-width="2"/>
<path d="M46.4651 10.8861L47.9013 16.2459" stroke="#193750" stroke-width="2" stroke-linecap="round"/>
<path d="M56.5956 48.6931L64.2351 77.204C65.2797 81.1025 62.9662 85.1096 59.0677 86.1542V86.1542C55.1692 87.1988 51.1621 84.8853 50.1175 80.9868L48.739 75.8423" stroke="#193750" stroke-width="2" stroke-linecap="round"/>
<defs>
<linearGradient id="paint0_linear" x1="25.2302" y1="37.0673" x2="77.4183" y2="40.1259" gradientUnits="userSpaceOnUse">
<stop stop-color="#CAFCFC"/>
<stop offset="1" stop-color="#D9DDFF"/>
</linearGradient>
</defs>
</svg>
