<svg width="64" height="59" viewBox="0 0 64 59" fill="none" xmlns="http://www.w3.org/2000/svg">
<path d="M23.8675 10.4276C13.0899 13.3154 5.93668 22.978 5.76197 33.6059C5.7558 33.9811 6.11302 34.2517 6.47551 34.1546L50.793 22.2798C51.1555 22.1826 51.3295 21.7696 51.1365 21.4478C45.6713 12.3311 34.6452 7.5397 23.8675 10.4276Z" fill="#E9F0F5"/>
<path d="M55.8089 20.3399L11.5147 32.2085C11.694 21.8388 18.6773 12.4148 29.1932 9.59707C39.7091 6.77933 50.4688 11.4491 55.8089 20.3399Z" stroke="#677B8B" stroke-width="1.15171"/>
<path d="M29.2862 9.7021C27.9235 10.8308 26.6616 12.1241 25.53 13.5785C21.7939 18.38 20.1077 24.1262 20.3399 29.7635" stroke="#677B8B" stroke-width="1.15171"/>
<path d="M28.8852 9.80959C30.6298 10.1057 32.3692 10.5948 34.0764 11.2885C39.7128 13.5787 44.0462 17.712 46.6637 22.7101" stroke="#677B8B" stroke-width="1.15171"/>
<path d="M28.2917 6.23267L29.1666 9.49756" stroke="#677B8B" stroke-width="1.15171" stroke-linecap="round"/>
<path d="M34.4626 29.2626L39.1161 46.6298C39.7524 49.0045 38.3432 51.4454 35.9685 52.0817V52.0817C33.5938 52.718 31.1528 51.3087 30.5165 48.934L29.6769 45.8003" stroke="#677B8B" stroke-width="1.15171" stroke-linecap="round"/>
</svg>
