<?xml version="1.0" encoding="utf-8"?>
<!-- Generator: Adobe Illustrator 22.1.0, SVG Export Plug-In . SVG Version: 6.00 Build 0)  -->
<svg version="1.1" id="Слой_1" xmlns="http://www.w3.org/2000/svg" xmlns:xlink="http://www.w3.org/1999/xlink" x="0px" y="0px"
	 viewBox="0 0 52 52.9" style="enable-background:new 0 0 52 52.9;" xml:space="preserve">
<style type="text/css">
	.st0{fill:#E9F0F5;}
	.st1{fill:none;stroke:#677B8B;stroke-width:1.2357;}
</style>
<path class="st0" d="M6,38.3L5.7,17.8l20.1,14.6v20.4L6,38.3z"/>
<path class="st0" d="M45.6,38.3l0.3-20.5L25.8,32.4v20.4L45.6,38.3z"/>
<path class="st1" d="M25.7,0.9c0.4-0.3,1-0.3,1.5,0l17.5,12.8c0.7,0.5,0.7,1.5,0,2L27.2,28.5c-0.4,0.3-1,0.3-1.5,0L8.3,15.7
	c-0.7-0.5-0.7-1.5,0-2L25.7,0.9z"/>
<path class="st1" d="M7.3,14.7l0,18.9c0,0.6,0.3,1.1,0.8,1.5l17.3,12.7c0.7,0.5,1.5,0.5,2.2,0l17.3-12.7c0.5-0.3,0.8-0.9,0.8-1.5
	V14.7"/>
<path class="st1" d="M26.4,29.2v18.9"/>
<path class="st1" d="M13.8,8.9L34.1,24"/>
<path class="st1" d="M18.5,5.5l20.3,15.1"/>
</svg>
