<svg width="81" height="67" viewBox="0 0 81 67" fill="none" xmlns="http://www.w3.org/2000/svg">
<path d="M0.901489 25.4383C0.901489 24.458 1.3804 23.5396 2.18416 22.9784L32.1008 2.09217C33.1324 1.37195 34.5038 1.37195 35.5354 2.09217L65.452 22.9784C66.2558 23.5396 66.7347 24.458 66.7347 25.4383V63.5267C66.7347 65.1835 65.3916 66.5267 63.7347 66.5267H3.90149C2.24463 66.5267 0.901489 65.1835 0.901489 63.5267V25.4383Z" fill="url(#paint0_linear)"/>
<path d="M15.7532 25.4383C15.7532 24.7848 16.0725 24.1725 16.6083 23.7984L46.5249 2.91215L45.9604 2.10347L46.5249 2.91215C47.2127 2.432 48.127 2.432 48.8147 2.91215L78.7313 23.7984C79.2672 24.1725 79.5864 24.7848 79.5864 25.4383V63.5267C79.5864 64.6313 78.691 65.5267 77.5864 65.5267H17.7532C16.6486 65.5267 15.7532 64.6313 15.7532 63.5267V25.4383Z" stroke="#193750" stroke-width="2"/>
<path d="M53.4509 41.9237H44.8887C43.2319 41.9237 41.8887 43.2668 41.8887 44.9237V64.037" stroke="#193750" stroke-width="2" stroke-linecap="round"/>
<circle cx="53.4509" cy="53.7131" r="1.88178" fill="#193750"/>
<defs>
<linearGradient id="paint0_linear" x1="18.1623" y1="33.5006" x2="64.0322" y2="39.4365" gradientUnits="userSpaceOnUse">
<stop stop-color="#CAFCFC"/>
<stop offset="1" stop-color="#D9DDFF"/>
</linearGradient>
</defs>
</svg>
