<svg width="47" height="39" viewBox="0 0 47 39" fill="none" xmlns="http://www.w3.org/2000/svg">
<path d="M0.550537 13.7229L19.3374 0.606934L38.1242 13.7229V38.0665H0.550537V13.7229Z" fill="#E9F0F5"/>
<path d="M9.01173 14.5918C9.01173 14.2288 9.18907 13.8888 9.48669 13.681L26.6072 1.7283C26.9892 1.46161 27.497 1.46161 27.879 1.7283L44.9995 13.681C45.2972 13.8888 45.4745 14.2289 45.4745 14.5918V36.4002C45.4745 37.0138 44.9771 37.5111 44.3636 37.5111H10.1226C9.50909 37.5111 9.01173 37.0138 9.01173 36.4002V14.5918Z" stroke="#677B8B" stroke-width="1.11087"/>
<path d="M30.5426 24.0244H25.6099C24.6896 24.0244 23.9436 24.7704 23.9436 25.6907V36.6454" stroke="#677B8B" stroke-width="1.11087" stroke-linecap="round"/>
<circle cx="30.5425" cy="30.7532" r="0.796289" fill="#677B8B" stroke="#677B8B" stroke-width="0.555435"/>
</svg>
