<svg width="80" height="69" viewBox="0 0 80 69" fill="none" xmlns="http://www.w3.org/2000/svg">
<circle cx="40.1766" cy="34.4146" r="34.161" fill="url(#paint0_linear)"/>
<path d="M79.7319 56.0366L66.5844 56.0366C65.8987 56.0366 65.3429 56.5925 65.3429 57.2782L65.3429 62.1998C65.3429 64.1113 63.2736 65.306 61.6181 64.3503L35.176 49.0839C34.3483 48.606 34.3483 47.4113 35.176 46.9334L61.6181 31.6671C63.2736 30.7113 65.3429 31.906 65.3429 33.8175L65.3429 38.7391C65.3429 39.4248 65.8987 39.9807 66.5844 39.9807L79.7319 39.9807" stroke="#193750" stroke-width="2.48315"/>
<path d="M0.621337 30.7072L13.7688 30.7072C14.4545 30.7072 15.0104 31.263 15.0104 31.9487L15.0104 36.8703C15.0104 38.7819 17.0796 39.9766 18.7351 39.0208L45.1772 23.7544C46.0049 23.2765 46.0049 22.0818 45.1772 21.604L18.7351 6.3376C17.0796 5.38183 15.0104 6.57654 15.0104 8.48807L15.0104 13.4097C15.0104 14.0954 14.4545 14.6512 13.7688 14.6512L0.621338 14.6512" stroke="#193750" stroke-width="2.48315"/>
<defs>
<linearGradient id="paint0_linear" x1="23.929" y1="34.1966" x2="71.5377" y2="40.3389" gradientUnits="userSpaceOnUse">
<stop stop-color="#CAFCFC"/>
<stop offset="1" stop-color="#D9DDFF"/>
</linearGradient>
</defs>
</svg>
