<svg width="57" height="74" viewBox="0 0 57 74" fill="none" xmlns="http://www.w3.org/2000/svg">
<path d="M13.9019 19.0693H42.6238" stroke="#193750" stroke-width="3.21" stroke-linecap="round"/>
<path d="M13.9019 30.8479H31.2153" stroke="#193750" stroke-width="3.21" stroke-linecap="round"/>
<path d="M16.8543 70.396L17.929 69.2039L16.8543 70.396C18.8911 72.2323 21.9862 72.2323 24.023 70.396L22.9483 69.2039L24.023 70.396L27.318 67.4253C28.1334 66.6902 29.3725 66.6902 30.1879 67.4253L33.4828 70.396L34.5575 69.2039L33.4828 70.396C35.5196 72.2323 38.6148 72.2323 40.6516 70.396L43.9465 67.4253C44.7619 66.6902 46.001 66.6902 46.8164 67.4253L50.5352 70.778C52.3714 72.4336 55.3007 71.1304 55.3007 68.6581V39.2898V35.8506V4.92315C55.3007 3.34675 54.0228 2.06883 52.4464 2.06883H5.05944C3.48305 2.06883 2.20512 3.34675 2.20512 4.92315V23.5035V51.6368V68.6581C2.20512 71.1304 5.13446 72.4336 6.97071 70.778L10.6895 67.4253C11.5048 66.6902 12.7439 66.6902 13.5593 67.4253L16.8543 70.396Z" stroke="#193750" stroke-width="3.21"/>
</svg>
