<svg width="80" height="80" viewBox="0 0 80 80" fill="none" xmlns="http://www.w3.org/2000/svg">
<circle cx="40.0748" cy="40.1478" r="39.3973" fill="white"/>
<path d="M48.9476 58.827C46.2682 59.902 43.751 60.5045 41.3961 60.6345C39.0603 60.7198 36.7879 60.3169 34.5787 59.4256L34.8822 56.582C37.1742 57.403 39.3094 57.787 41.2879 57.7339C43.2982 57.668 45.4995 57.1552 47.8919 56.1955C50.7627 55.0438 52.7588 53.5579 53.8802 51.7378C55.0017 49.9177 55.1337 47.9391 54.2763 45.802C53.7772 44.5579 52.9754 43.7131 51.8708 43.2675C50.7854 42.7772 49.547 42.5518 48.1557 42.5916C46.7963 42.6185 45.0382 42.8053 42.8814 43.1522C40.0354 43.6273 37.6615 43.8946 35.7597 43.954C33.8769 43.9686 32.1278 43.5779 30.5123 42.7818C28.8968 41.9857 27.6732 40.5509 26.8414 38.4775C26.0736 36.5637 25.8898 34.6747 26.2899 32.8107C26.6901 30.9467 27.6394 29.2513 29.1376 27.7244C30.6678 26.1847 32.645 24.9286 35.0692 23.9561C37.3978 23.0219 39.7045 22.5409 41.9893 22.5131C44.2613 22.4533 46.4093 22.8692 48.4334 23.7606L48.1299 26.6042C45.9591 25.8086 43.9101 25.4086 41.9826 25.4042C40.0552 25.3998 38.1026 25.7943 36.125 26.5877C33.2542 27.7394 31.2549 29.2635 30.1272 31.1602C29.0313 33.0441 28.9185 35.0705 29.7887 37.2396C30.5437 39.1216 31.8085 40.2435 33.5831 40.6055C35.3578 40.9675 37.7287 40.9236 40.696 40.4739L42.2179 40.2521C45.0129 39.8344 47.2751 39.612 49.0047 39.5847C50.7342 39.5574 52.3556 39.9068 53.869 40.6328C55.3823 41.3588 56.5228 42.6788 57.2906 44.5927C58.0329 46.4428 58.1975 48.2838 57.7845 50.116C57.3587 51.9162 56.3807 53.5861 54.8506 55.1258C53.3395 56.6207 51.3719 57.8545 48.9476 58.827Z" fill="#193750"/>
<path d="M33.2511 18.5737L51.766 64.7251" stroke="#193750" stroke-width="3" stroke-linecap="round" stroke-linejoin="round"/>
</svg>
