<svg width="35" height="31" viewBox="0 0 35 31" fill="none" xmlns="http://www.w3.org/2000/svg">
<path d="M1.54697 13.808C0.914164 14.4408 0.914164 15.4668 1.54697 16.0996L3.70594 18.2586C4.06346 18.6161 4.06346 19.1958 3.70594 19.5533L1.37218 21.8871C0.835901 22.4233 0.8359 23.2928 1.37218 23.8291L1.73355 24.1905C2.26983 24.7268 3.13931 24.7268 3.6756 24.1905L7.98906 19.877C8.03471 19.8314 8.07646 19.7833 8.11434 19.7332C8.15254 19.6828 8.19167 19.6328 8.23644 19.588L8.60382 19.2207C8.78258 19.0419 8.78258 18.7521 8.60382 18.5733L8.17957 18.149C8.14595 18.1154 8.11548 18.0789 8.08552 18.0419C8.05557 18.005 8.02342 17.9693 7.98906 17.935L7.6277 17.5736C7.59335 17.5392 7.55763 17.5071 7.52071 17.4771C7.4838 17.4472 7.44723 17.4167 7.41361 17.3831L3.83856 13.808C3.20576 13.1752 2.17977 13.1752 1.54697 13.808Z" fill="white"/>
<path d="M33.7462 8.20903C34.379 8.84183 34.379 9.86781 33.7462 10.5006L31.5872 12.6596C31.2297 13.0171 31.2297 13.5967 31.5872 13.9543L33.921 16.288C34.4572 16.8243 34.4572 17.6938 33.921 18.2301L33.5596 18.5914C33.0233 19.1277 32.1538 19.1277 31.6175 18.5914L27.3041 14.278C27.2584 14.2323 27.2167 14.1843 27.1788 14.1343C27.1407 14.0838 27.1015 14.0339 27.0568 13.9891L26.6893 13.6216C26.5106 13.4429 26.5106 13.153 26.6893 12.9743L27.1134 12.5502C27.1471 12.5165 27.1776 12.4799 27.2076 12.443C27.2375 12.406 27.2697 12.3703 27.3041 12.3359L27.6654 11.9745C27.6998 11.9402 27.7356 11.908 27.7725 11.878C27.8094 11.848 27.846 11.8176 27.8797 11.7839L31.4546 8.20903C32.0874 7.57622 33.1134 7.57622 33.7462 8.20903Z" fill="white"/>
<path fill-rule="evenodd" clip-rule="evenodd" d="M6.46287 7.66448C5.10654 9.02081 5.10654 11.2199 6.46287 12.5762L10.7869 16.9002C11.7208 17.8341 11.7208 19.3482 10.7869 20.282L6.47554 24.5934C5.11221 25.9567 5.11221 28.1671 6.47554 29.5304C7.83886 30.8938 10.0493 30.8938 11.4126 29.5304L19.8834 21.0597C19.9884 20.9546 20.0853 20.8446 20.1742 20.7303C20.2673 20.6105 20.3621 20.4918 20.4694 20.3845L21.4366 19.4173C21.9035 18.9504 21.9035 18.1934 21.4366 17.7265L20.3341 16.624C20.2535 16.5434 20.1798 16.4562 20.107 16.3683C20.0371 16.2838 19.9625 16.2018 19.8834 16.1226C19.8042 16.0435 19.7222 15.9689 19.6377 15.8989C19.5498 15.8262 19.4626 15.7525 19.382 15.6719L11.3746 7.66448C10.0182 6.30815 7.8192 6.30815 6.46287 7.66448Z" fill="white"/>
<path d="M29.2491 6.80174C30.6838 5.367 30.6838 3.04082 29.2491 1.60608C27.8143 0.171345 25.4882 0.171344 24.0534 1.60608L15.953 9.70656L20.6501 14.4037C20.666 14.4196 20.6962 14.447 20.7812 14.5173C20.909 14.6231 21.0326 14.7355 21.1516 14.8545C21.2705 14.9735 21.383 15.0971 21.4887 15.2249C21.559 15.3098 21.5864 15.34 21.6023 15.3559L22.7047 16.4583C23.8721 17.6257 23.8721 19.5182 22.7048 20.6855L21.7376 21.6527C21.7164 21.6739 21.6806 21.7146 21.5902 21.8309C21.5205 21.9206 21.4476 22.0085 21.3715 22.0943L24.423 25.1458C25.6389 26.3616 27.6103 26.3616 28.8262 25.1458L29.6455 24.3264C30.8614 23.1105 30.8614 21.1392 29.6455 19.9233L24.3542 14.632C23.5436 13.8214 23.5436 12.5072 24.3542 11.6966L29.2491 6.80174Z" fill="white"/>
</svg>
