<svg width="34" height="31" viewBox="0 0 34 31" fill="none" xmlns="http://www.w3.org/2000/svg">
<path d="M0.576999 13.278C-0.0558066 13.9108 -0.0558067 14.9368 0.576999 15.5696L2.73597 17.7286C3.09349 18.0861 3.09349 18.6658 2.73597 19.0233L0.402212 21.357C-0.13407 21.8933 -0.134071 22.7628 0.402211 23.2991L0.763574 23.6604C1.29986 24.1967 2.16934 24.1967 2.70562 23.6604L7.01909 19.347C7.06473 19.3013 7.10649 19.2533 7.14437 19.2032C7.18257 19.1527 7.2217 19.1028 7.26647 19.058L7.63385 18.6906C7.81261 18.5119 7.81261 18.222 7.63385 18.0433L7.20959 17.619C7.17598 17.5854 7.1455 17.5488 7.11555 17.5119C7.0856 17.475 7.05344 17.4393 7.01909 17.4049L6.65773 17.0436C6.62338 17.0092 6.58765 16.9771 6.55074 16.9471C6.51383 16.9171 6.47725 16.8867 6.44364 16.8531L2.86859 13.278C2.23578 12.6452 1.2098 12.6452 0.576999 13.278Z" fill="#15ABAB"/>
<path d="M32.7762 7.679C33.409 8.3118 33.409 9.33778 32.7762 9.97059L30.6172 12.1295C30.2597 12.4871 30.2597 13.0667 30.6172 13.4242L32.951 15.758C33.4873 16.2943 33.4873 17.1637 32.951 17.7L32.5896 18.0614C32.0533 18.5977 31.1838 18.5977 30.6476 18.0614L26.3341 13.7479C26.2885 13.7023 26.2467 13.6543 26.2089 13.6042C26.1707 13.5538 26.1316 13.5038 26.0868 13.4591L25.7193 13.0916C25.5406 12.9128 25.5406 12.623 25.7193 12.4443L26.1435 12.0201C26.1771 11.9865 26.2076 11.9499 26.2376 11.9129C26.2675 11.876 26.2997 11.8403 26.3341 11.8059L26.6955 11.4445C26.7298 11.4101 26.7656 11.378 26.8025 11.348C26.8395 11.318 26.8761 11.2875 26.9097 11.2539L30.4846 7.679C31.1174 7.04619 32.1434 7.04619 32.7762 7.679Z" fill="#15ABAB"/>
<path fill-rule="evenodd" clip-rule="evenodd" d="M5.4929 7.13445C4.13657 8.49078 4.13657 10.6898 5.4929 12.0462L9.81696 16.3702C10.7508 17.3041 10.7508 18.8181 9.81696 19.752L5.50557 24.0634C4.14224 25.4267 4.14224 27.6371 5.50557 29.0004C6.86889 30.3637 9.07928 30.3637 10.4426 29.0004L18.9134 20.5296C19.0184 20.4246 19.1154 20.3145 19.2042 20.2002C19.2973 20.0805 19.3921 19.9618 19.4994 19.8545L20.4666 18.8873C20.9335 18.4204 20.9335 17.6634 20.4666 17.1964L19.3642 16.094C19.2835 16.0134 19.2098 15.9262 19.1371 15.8383C19.0671 15.7538 18.9926 15.6717 18.9134 15.5926C18.8342 15.5134 18.7522 15.4389 18.6677 15.3689C18.5798 15.2962 18.4926 15.2225 18.412 15.1418L10.4046 7.13445C9.04827 5.77812 6.84923 5.77812 5.4929 7.13445Z" fill="#15ABAB"/>
<path d="M28.2791 6.27171C29.7139 4.83697 29.7139 2.5108 28.2791 1.07606C26.8444 -0.358685 24.5182 -0.358685 23.0835 1.07605L14.983 9.17653L19.6802 13.8737C19.6961 13.8896 19.7262 13.917 19.8112 13.9873C19.939 14.0931 20.0626 14.2055 20.1816 14.3245C20.3006 14.4434 20.413 14.5671 20.5187 14.6948C20.5891 14.7798 20.6164 14.81 20.6323 14.8259L21.7348 15.9283C22.9021 17.0956 22.9021 18.9882 21.7348 20.1555L20.7676 21.1227C20.7464 21.1439 20.7107 21.1846 20.6203 21.3009C20.5505 21.3906 20.4776 21.4784 20.4016 21.5642L23.453 24.6157C24.6689 25.8316 26.6403 25.8316 27.8562 24.6157L28.6755 23.7964C29.8914 22.5805 29.8914 20.6092 28.6755 19.3933L23.3842 14.102C22.5736 13.2914 22.5736 11.9772 23.3842 11.1666L28.2791 6.27171Z" fill="#15ABAB"/>
</svg>
